# xmcd
#
# Track frame offsets:
#	150
#	12373
#	36121
#	51652
#	74513
#	95019
#	116840
#	128754
#	138547
#	149025
#
# Disc length: 2157 seconds
#
# Revision: 0
# Processed by: cddbd v1.5.2PL0 Copyright (c) Steve Scherf et al.
# Submitted via: audiograbber 1.83.01
#
DISCID=a2086b0a
DTITLE=Woogie - Best Of
DYEAR=2008
DGENRE=Blues
TTITLE0=Blow, Wind, Blow
TTITLE1=In The Evening
TTITLE2=Confessin' The Blues
TTITLE3=Baby, What You Want Me To Do
TTITLE4=Nobody Knows Me
TTITLE5=Rock Me Baby
TTITLE6=I'd Rather Drink Muddy Water
TTITLE7=No Particular Place To Go
TTITLE8=Woog's Groove
TTITLE9=Soul Ballad #1
EXTD=http://woogie.fiatlux.tk\nbooking and info: fiatluxmedia@yahoo.ca\nsee also:
EXTD=Baroque Blues Band, Delta Blues Band, Only Blues Band, Maurice Comtois\nf
EXTD=reedb submitted by BigueNique@yahoo.ca\nhttp://radio.fiatlux.tk
EXTT0=
EXTT1=
EXTT2=
EXTT3=
EXTT4=
EXTT5=
EXTT6=
EXTT7=
EXTT8=
EXTT9=
PLAYORDER=
